<svg width="27" height="27" viewBox="0 0 27 27" fill="none" xmlns="http://www.w3.org/2000/svg">
<path d="M1.09546 23.8293C0.569758 24.355 0.583264 25.2209 1.12569 25.7633C1.66811 26.3057 2.53396 26.3192 3.05966 25.7935L25.9046 2.94857C26.4303 2.42291 26.4168 1.55699 25.8744 1.01457C25.332 0.472146 24.4661 0.45871 23.9404 0.984374L1.09546 23.8293Z" fill="black"/>
<path d="M3.05963 0.984358C2.53393 0.458659 1.66808 0.472165 1.12566 1.01459C0.583236 1.55701 0.56973 2.42286 1.09543 2.94856L23.9404 25.7935C24.4661 26.3192 25.332 26.3057 25.8744 25.7633C26.4168 25.2209 26.4303 24.355 25.9046 23.8293L3.05963 0.984358Z" fill="black"/>
</svg>
